<svg width="20" height="22" viewBox="0 0 20 22" fill="none" xmlns="http://www.w3.org/2000/svg">
<path d="M11.7491 20.213C11.5692 20.5232 11.3109 20.7806 11.0002 20.9596C10.6895 21.1386 10.3371 21.2328 9.97856 21.2328C9.61996 21.2328 9.26766 21.1386 8.95693 20.9596C8.6462 20.7806 8.38794 20.5232 8.208 20.213M16.1192 6.90823C16.1192 5.27963 15.4722 3.71773 14.3207 2.56614C13.1691 1.41454 11.6072 0.767581 9.97856 0.767581C8.34996 0.767581 6.78806 1.41454 5.63646 2.56614C4.48487 3.71773 3.83791 5.27963 3.83791 6.90823C3.83791 14.0723 0.767581 16.1192 0.767581 16.1192H19.1895C19.1895 16.1192 16.1192 14.0723 16.1192 6.90823Z" stroke="#9A9FAE" stroke-width="1.5" stroke-linecap="round" stroke-linejoin="round"/>
</svg>
