<svg width="27" height="27" viewBox="0 0 27 27" fill="none" xmlns="http://www.w3.org/2000/svg">
<path d="M13.5 9C11.6359 9 10.125 10.0069 10.125 11.25C10.125 12.4931 11.6359 13.5 13.5 13.5C15.3641 13.5 16.875 14.5069 16.875 15.75C16.875 16.9931 15.3641 18 13.5 18M13.5 9V18M13.5 9C14.7488 9 15.84 9.45225 16.4239 10.125M13.5 9V7.875M13.5 18V19.125M13.5 18C12.2512 18 11.16 17.5477 10.5761 16.875M23.625 13.5C23.625 14.8296 23.3631 16.1462 22.8543 17.3747C22.3455 18.6031 21.5996 19.7193 20.6595 20.6595C19.7193 21.5996 18.6031 22.3455 17.3747 22.8543C16.1462 23.3631 14.8296 23.625 13.5 23.625C12.1704 23.625 10.8538 23.3631 9.62533 22.8543C8.39691 22.3455 7.28074 21.5996 6.34054 20.6595C5.40035 19.7193 4.65455 18.6031 4.14572 17.3747C3.63689 16.1462 3.375 14.8296 3.375 13.5C3.375 10.8147 4.44174 8.23935 6.34054 6.34054C8.23935 4.44174 10.8147 3.375 13.5 3.375C16.1853 3.375 18.7606 4.44174 20.6595 6.34054C22.5583 8.23935 23.625 10.8147 23.625 13.5Z" stroke="#9A9FAE" stroke-width="1.5" stroke-linecap="round" stroke-linejoin="round"/>
</svg>
