<svg width="24" height="24" viewBox="0 0 24 24" fill="none" xmlns="http://www.w3.org/2000/svg">
<path fill-rule="evenodd" clip-rule="evenodd" d="M12.0132 5.57169L10.9262 4.48469C8.77831 2.33681 5.29591 2.33681 3.14802 4.48469C1.00014 6.63258 1.00014 10.115 3.14802 12.2629L11.9869 21.1017L11.9887 21.0999L12.015 21.1262L20.8538 12.2874C23.0017 10.1395 23.0017 6.65711 20.8538 4.50923C18.7059 2.36134 15.2235 2.36134 13.0757 4.50923L12.0132 5.57169ZM11.9887 18.2715L16.9249 13.3352L18.3757 11.9342L18.3772 11.9356L19.4396 10.8732C20.8064 9.50635 20.8064 7.29028 19.4396 5.92344C18.0728 4.55661 15.8567 4.55661 14.4899 5.92344L12.0143 8.39904L12.007 8.3918L12.006 8.39287L9.51198 5.89891C8.14515 4.53207 5.92907 4.53207 4.56224 5.89891C3.1954 7.26574 3.1954 9.48182 4.56224 10.8487L7.10166 13.3881L7.10346 13.3863L11.9887 18.2715Z" fill="black"/>
</svg>
