<svg width="23" height="23" viewBox="0 0 23 23" fill="none" xmlns="http://www.w3.org/2000/svg">
<path d="M22.2333 10.9037C22.2374 12.4778 21.8697 14.0306 21.16 15.4356C20.3185 17.1192 19.025 18.5353 17.4241 19.5253C15.8233 20.5153 13.9785 21.04 12.0963 21.0408C10.5222 21.0449 8.96946 20.6771 7.56444 19.9674L0.766667 22.2334L3.03259 15.4356C2.32292 14.0306 1.95516 12.4778 1.95926 10.9037C1.95999 9.02154 2.48473 7.17671 3.47471 5.57589C4.46469 3.97507 5.88081 2.68149 7.56444 1.84003C8.96946 1.13036 10.5222 0.762597 12.0963 0.766701H12.6926C15.1784 0.903839 17.5262 1.95305 19.2866 3.71343C21.047 5.47381 22.0962 7.82166 22.2333 10.3074V10.9037Z" stroke="#9A9FAE" stroke-width="1.5" stroke-linecap="round" stroke-linejoin="round"/>
</svg>
