<svg width="10" height="26" viewBox="0 0 10 26" fill="none" xmlns="http://www.w3.org/2000/svg">
<path fill-rule="evenodd" clip-rule="evenodd" d="M9.19834 0C9.60828 0 9.94193 0.334663 9.94193 0.746634L9.94091 0.755789H9.94193V1.48818H9.25022C9.24281 1.48862 9.2354 1.48961 9.22799 1.49061C9.21811 1.49194 9.20822 1.49327 9.19834 1.49327H0.744294C0.733924 1.49327 0.724207 1.49196 0.714404 1.49065C0.706897 1.48964 0.699339 1.48862 0.691399 1.48818H0.000712048V0.755789L0.00172926 0.752737L0.000712048 0.746634C0.000712048 0.334663 0.33334 0 0.744294 0H9.19834ZM3.12691 12.1486C3.12691 11.1263 3.95289 10.2972 4.97112 10.2972C5.98934 10.2972 6.81532 11.1263 6.81532 12.1486V14.3702C6.81532 15.3925 5.98934 16.2215 4.97112 16.2215C3.95289 16.2215 3.12691 15.3925 3.12691 14.3702V12.1486ZM0 3.93966L0.0386541 4.0068L0.00203442 3.94475C0.00203442 3.94475 0.292957 4.90296 0.965334 6.0575C1.47496 6.93332 1.95203 7.50906 2.1748 7.75828L2.29381 7.96782V24.4151C2.29381 25.2899 3.00078 25.9999 3.87253 25.9999H6.0697C6.94146 25.9999 7.64842 25.2899 7.64842 24.4151V7.94443L7.7359 7.78981C7.94239 7.56399 8.44286 6.97502 8.97791 6.05241C9.65131 4.89889 9.94121 3.93966 9.94121 3.93966V2.63458H0V3.93966ZM4.78486 15.4346C5.39824 15.5383 5.97704 15.1233 6.07977 14.5079C6.18353 13.8925 5.76952 13.3106 5.15716 13.2079C4.5448 13.1041 3.96499 13.5192 3.86225 14.1346C3.75951 14.749 4.1725 15.3308 4.78486 15.4346Z" fill="white"/>
</svg>
