<svg width="22" height="20" viewBox="0 0 22 20" fill="none" xmlns="http://www.w3.org/2000/svg">
<path d="M18.8968 19.8716H18.897C19.3212 19.8711 19.7278 19.7023 20.0278 19.4024C20.3277 19.1024 20.4965 18.6958 20.497 18.2716V18.2714V14.2409C20.497 14.127 20.4517 14.0178 20.3712 13.9373C20.2907 13.8567 20.1814 13.8115 20.0675 13.8115C19.9536 13.8115 19.8444 13.8567 19.7638 13.9373C19.6833 14.0178 19.6381 14.127 19.6381 14.2409V18.2713C19.6378 18.4678 19.5596 18.6562 19.4206 18.7952C19.2816 18.9342 19.0932 19.0124 18.8967 19.0127H1.72852C1.53197 19.0124 1.34355 18.9342 1.20457 18.7952C1.06561 18.6562 0.987419 18.4679 0.987125 18.2713V5.04412L18.8967 5.04412C18.8967 5.04412 18.8968 5.04412 18.8968 5.04412C19.0933 5.04433 19.2817 5.1225 19.4207 5.26148C19.5597 5.40046 19.6379 5.58891 19.6381 5.78546V9.81612C19.6381 9.93002 19.6833 10.0393 19.7638 10.1198C19.8444 10.2003 19.9536 10.2456 20.0675 10.2456C20.1814 10.2456 20.2907 10.2003 20.3712 10.1198C20.4517 10.0393 20.497 9.93002 20.497 9.81612V5.78533V5.78517C20.4965 5.36099 20.3277 4.95433 20.0278 4.65439C19.7278 4.35445 19.3212 4.18572 18.897 4.1852H18.8968H0.557665C0.443765 4.1852 0.334531 4.23044 0.253991 4.31098C0.173452 4.39152 0.128205 4.50076 0.128205 4.61466L0.128205 18.2714L0.128205 18.2716C0.128639 18.6958 0.297349 19.1025 0.597314 19.4025C0.89728 19.7024 1.304 19.8711 1.72821 19.8716H1.72834H18.8968Z" fill="#9A9FAE" stroke="#9A9FAE" stroke-width="0.25"/>
<path d="M20.5382 14.6689H20.5383C20.7859 14.6686 21.0233 14.57 21.1983 14.3948C21.3733 14.2196 21.4716 13.9821 21.4716 13.7345V10.3213V10.3211C21.4713 10.0737 21.3729 9.83642 21.198 9.6614C21.023 9.48638 20.7858 9.38789 20.5383 9.38752H20.5382H17.0102C16.3098 9.38752 15.6381 9.66573 15.1429 10.161C14.6477 10.6562 14.3695 11.3278 14.3695 12.0282C14.3695 12.7285 14.6477 13.4002 15.1429 13.8954C15.6381 14.3906 16.3098 14.6689 17.0102 14.6689H20.5382ZM17.0102 10.2476H17.0102L20.5379 10.2464C20.5577 10.2465 20.5767 10.2545 20.5907 10.2685C20.6048 10.2825 20.6127 10.3016 20.6127 10.3215L20.6127 13.7345L20.6127 13.7356C20.6128 13.7455 20.6109 13.7553 20.6072 13.7645C20.6035 13.7736 20.598 13.7819 20.5911 13.789C20.5841 13.796 20.5758 13.8015 20.5667 13.8054C20.5576 13.8092 20.5478 13.8111 20.538 13.8111H17.0102C16.7762 13.8111 16.5445 13.7651 16.3283 13.6755C16.1121 13.586 15.9157 13.4547 15.7503 13.2893C15.5848 13.1238 15.4536 12.9274 15.364 12.7112C15.2745 12.4951 15.2284 12.2634 15.2284 12.0294C15.2284 11.7954 15.2745 11.5637 15.364 11.3475C15.4536 11.1314 15.5848 10.935 15.7503 10.7695C15.9157 10.6041 16.1121 10.4728 16.3283 10.3833C16.5445 10.2937 16.7762 10.2476 17.0102 10.2476Z" fill="#9A9FAE" stroke="#9A9FAE" stroke-width="0.25"/>
<path d="M0.418449 4.20867L0.418459 4.20867L11.9637 0.2535C11.9637 0.253497 11.9637 0.253495 11.9637 0.253492C12.3129 0.133807 12.6856 0.0992041 13.0509 0.152561C13.4161 0.205919 13.7633 0.345698 14.0637 0.560277C14.364 0.774856 14.6088 1.05803 14.7777 1.38627C14.9465 1.71449 15.0346 2.07829 15.0346 2.44741C15.0346 2.44742 15.0346 2.44742 15.0346 2.44743V4.61494C15.0346 4.72884 14.9893 4.83807 14.9088 4.91861C14.8283 4.99915 14.719 5.0444 14.6051 5.0444C14.4912 5.0444 14.382 4.99915 14.3014 4.91861C14.2209 4.83807 14.1757 4.72884 14.1757 4.61494V2.44741C14.1756 2.21501 14.1202 1.98597 14.0138 1.77932C13.9075 1.57267 13.7533 1.39439 13.5642 1.25929C13.3751 1.12419 13.1565 1.03618 12.9265 1.00256C12.6966 0.968952 12.4619 0.990713 12.2421 1.06604L12.2005 0.944752L12.2421 1.06604L0.696944 5.02115C0.696925 5.02116 0.696906 5.02117 0.696887 5.02117L0.696772 5.02121L0.418449 4.20867ZM0.418449 4.20867C0.322279 4.24162 0.240917 4.30763 0.188839 4.39493C0.13676 4.48224 0.117341 4.58519 0.134037 4.68547C0.150733 4.78575 0.202461 4.87686 0.280019 4.94258C0.357543 5.00827 0.455849 5.04435 0.557464 5.0444M0.418449 4.20867L0.557464 5.0444M0.557464 5.0444C0.557508 5.0444 0.557551 5.0444 0.557594 5.0444L0.557615 4.91619L0.557464 5.0444Z" fill="#9A9FAE" stroke="#9A9FAE" stroke-width="0.25"/>
<path d="M18.3385 12.0284V12.0283C18.3385 11.789 18.2675 11.5551 18.1346 11.3561C18.0016 11.1571 17.8127 11.002 17.5916 10.9104C17.3705 10.8189 17.1273 10.7949 16.8925 10.8415C16.6578 10.8882 16.4422 11.0034 16.273 11.1726C16.1038 11.3418 15.9885 11.5574 15.9418 11.7921C15.895 12.0268 15.9189 12.27 16.0105 12.4911C16.102 12.7122 16.257 12.9012 16.456 13.0342C16.6549 13.1672 16.8888 13.2383 17.1281 13.2383H17.1282C17.4491 13.2382 17.7568 13.1106 17.9837 12.8838C18.2106 12.6569 18.3382 12.3493 18.3385 12.0284ZM16.9331 11.7367C16.9908 11.6981 17.0587 11.6775 17.1282 11.6775C17.2213 11.6775 17.3105 11.7145 17.3764 11.7803C17.4422 11.8461 17.4792 11.9353 17.4793 12.0284C17.4793 12.0979 17.4588 12.1658 17.4202 12.2235C17.3817 12.2813 17.3268 12.3263 17.2627 12.3529C17.1985 12.3795 17.1279 12.3865 17.0598 12.373C16.9917 12.3595 16.9291 12.3261 16.88 12.277C16.8309 12.2279 16.7974 12.1653 16.7839 12.0972C16.7703 12.0291 16.7772 11.9585 16.8038 11.8943C16.8304 11.8302 16.8754 11.7753 16.9331 11.7367Z" fill="#9A9FAE" stroke="#9A9FAE" stroke-width="0.25"/>
</svg>
