<svg width="24" height="24" viewBox="0 0 24 24" fill="none" xmlns="http://www.w3.org/2000/svg">
<path d="M3.66148 2.67105C3.71365 2.39988 3.9798 2.18005 4.25595 2.18005H6.25595C6.53209 2.18005 6.71365 2.39988 6.66148 2.67105L5.33902 9.54499C5.28685 9.81616 5.0207 10.036 4.74455 10.036H2.74455C2.46841 10.036 2.28685 9.81616 2.33902 9.54499L3.66148 2.67105Z" fill="black"/>
<path d="M8.66148 2.67105C8.71365 2.39988 8.9798 2.18005 9.25595 2.18005H11.2559C11.5321 2.18005 11.7137 2.39988 11.6615 2.67105L8.07193 21.3289C8.01976 21.6001 7.75361 21.8199 7.47746 21.8199H5.47746C5.20132 21.8199 5.01976 21.6001 5.07193 21.3289L8.66148 2.67105Z" fill="black"/>
<path d="M13.6615 2.67105C13.7137 2.39988 13.9798 2.18005 14.2559 2.18005H16.2559C16.5321 2.18005 16.7137 2.39988 16.6615 2.67105L13.0719 21.3289C13.0198 21.6001 12.7536 21.8199 12.4775 21.8199H10.4775C10.2013 21.8199 10.0198 21.6001 10.0719 21.3289L13.6615 2.67105Z" fill="black"/>
<path d="M18.6615 2.67105C18.7137 2.39988 18.9798 2.18005 19.2559 2.18005H21.2559C21.5321 2.18005 21.7137 2.39988 21.6615 2.67105L20.339 9.54499C20.2868 9.81616 20.0207 10.036 19.7446 10.036H17.7446C17.4684 10.036 17.2868 9.81616 17.339 9.54499L18.6615 2.67105Z" fill="black"/>
</svg>
