<svg width="28" height="28" viewBox="0 0 28 28" fill="none" xmlns="http://www.w3.org/2000/svg">
<path d="M22.1666 11.6667V14.0001C22.1666 16.166 21.3062 18.2432 19.7747 19.7748C18.2431 21.3063 16.1659 22.1667 14 22.1667M14 22.1667C11.834 22.1667 9.75682 21.3063 8.22527 19.7748C6.69373 18.2432 5.83331 16.166 5.83331 14.0001V11.6667M14 22.1667V26.8334M9.33331 26.8334H18.6666M14 1.16675C13.0717 1.16675 12.1815 1.5355 11.5251 2.19187C10.8687 2.84825 10.5 3.73849 10.5 4.66675V14.0001C10.5 14.9283 10.8687 15.8186 11.5251 16.475C12.1815 17.1313 13.0717 17.5001 14 17.5001C14.9282 17.5001 15.8185 17.1313 16.4749 16.475C17.1312 15.8186 17.5 14.9283 17.5 14.0001V4.66675C17.5 3.73849 17.1312 2.84825 16.4749 2.19187C15.8185 1.5355 14.9282 1.16675 14 1.16675Z" stroke="white" stroke-width="2" stroke-linecap="round" stroke-linejoin="round"/>
</svg>
