<svg width="24" height="21" viewBox="0 0 24 21" fill="none" xmlns="http://www.w3.org/2000/svg">
<path d="M21.3622 2.48924C20.8169 1.94375 20.1696 1.51102 19.457 1.21579C18.7445 0.92056 17.9808 0.768604 17.2096 0.768604C16.4383 0.768604 15.6746 0.92056 14.9621 1.21579C14.2496 1.51102 13.6022 1.94375 13.057 2.48924L11.9254 3.62079L10.7939 2.48924C9.69252 1.3879 8.19879 0.769175 6.64126 0.769175C5.08374 0.769175 3.59 1.3879 2.48867 2.48924C1.38733 3.59057 0.768604 5.08431 0.768604 6.64183C0.768604 8.19936 1.38733 9.69309 2.48867 10.7944L3.62022 11.926L11.9254 20.2312L20.2306 11.926L21.3622 10.7944C21.9077 10.2492 22.3404 9.60183 22.6356 8.88931C22.9308 8.17679 23.0828 7.41309 23.0828 6.64183C23.0828 5.87057 22.9308 5.10687 22.6356 4.39435C22.3404 3.68184 21.9077 3.03447 21.3622 2.48924V2.48924Z" stroke="#9A9FAE" stroke-width="1.5" stroke-linecap="round" stroke-linejoin="round"/>
</svg>
