<svg width="24" height="24" viewBox="0 0 24 24" fill="none" xmlns="http://www.w3.org/2000/svg">
<path fill-rule="evenodd" clip-rule="evenodd" d="M10.9995 6.84976C9.83381 6.43819 8.99856 5.32671 8.99856 4.02014C8.99856 2.36329 10.3417 1.02014 11.9986 1.02014C13.6554 1.02014 14.9986 2.36329 14.9986 4.02014C14.9986 5.32601 14.1642 6.43701 12.9995 6.84911L13.0126 19.1375L14.8249 17.315L16.243 18.7253L12.0123 22.9799L7.75781 18.7491L9.16806 17.3309L11.0126 19.1652L10.9995 6.84976ZM11.9986 5.02014C11.4463 5.02014 10.9986 4.57243 10.9986 4.02014C10.9986 3.46786 11.4463 3.02014 11.9986 3.02014C12.5508 3.02014 12.9986 3.46786 12.9986 4.02014C12.9986 4.57243 12.5508 5.02014 11.9986 5.02014Z" fill="black"/>
</svg>
