<svg width="24" height="24" viewBox="0 0 24 24" fill="none" xmlns="http://www.w3.org/2000/svg">
<path d="M12.0485 3.11401C14.1921 3.11401 16.1387 3.95706 17.575 5.32967L16.1603 6.74437C15.0864 5.73346 13.6398 5.11401 12.0485 5.11401C10.408 5.11401 8.92122 5.77243 7.83807 6.83944L6.42383 5.42519C7.86893 3.99627 9.8557 3.11401 12.0485 3.11401Z" fill="black"/>
<path d="M10.9761 11.886C10.9761 11.3337 11.4238 10.886 11.9761 10.886C12.5284 10.886 12.9761 11.3337 12.9761 11.886V13.886H10.9761V11.886Z" fill="black"/>
<path fill-rule="evenodd" clip-rule="evenodd" d="M11.9761 6.88599C9.21465 6.88599 6.97607 9.12456 6.97607 11.886V15.886C6.97607 18.6474 9.21465 20.886 11.9761 20.886C14.7375 20.886 16.9761 18.6474 16.9761 15.886V11.886C16.9761 9.12456 14.7375 6.88599 11.9761 6.88599ZM14.9761 15.886V11.886C14.9761 10.2291 13.6329 8.88599 11.9761 8.88599C10.3192 8.88599 8.97607 10.2291 8.97607 11.886V15.886C8.97607 17.5428 10.3192 18.886 11.9761 18.886C13.6329 18.886 14.9761 17.5428 14.9761 15.886Z" fill="black"/>
</svg>
