<svg width="68" height="27" viewBox="0 0 68 27" fill="none" xmlns="http://www.w3.org/2000/svg">
<path d="M12.0556 17.8333L7.72222 13.5M7.72222 13.5L12.0556 9.16667M7.72222 13.5H19.2778M0.5 13.5C0.5 11.7928 0.836255 10.1023 1.48957 8.52512C2.14288 6.94788 3.10045 5.51477 4.30761 4.30761C5.51477 3.10045 6.94788 2.14288 8.52512 1.48957C10.1023 0.836255 11.7928 0.5 13.5 0.5C15.2072 0.5 16.8977 0.836255 18.4749 1.48957C20.0521 2.14288 21.4852 3.10045 22.6924 4.30761C23.8995 5.51477 24.8571 6.94788 25.5104 8.52512C26.1637 10.1023 26.5 11.7928 26.5 13.5C26.5 16.9478 25.1304 20.2544 22.6924 22.6924C20.2544 25.1304 16.9478 26.5 13.5 26.5C10.0522 26.5 6.74558 25.1304 4.30761 22.6924C1.86964 20.2544 0.5 16.9478 0.5 13.5Z" stroke="white" stroke-linecap="round" stroke-linejoin="round"/>
<path d="M55.9444 17.8333L60.2778 13.5M60.2778 13.5L55.9444 9.16667M60.2778 13.5H48.7222M67.5 13.5C67.5 11.7928 67.1637 10.1023 66.5104 8.52512C65.8571 6.94788 64.8996 5.51477 63.6924 4.30761C62.4852 3.10045 61.0521 2.14288 59.4749 1.48957C57.8977 0.836255 56.2072 0.5 54.5 0.5C52.7928 0.5 51.1023 0.836255 49.5251 1.48957C47.9479 2.14288 46.5148 3.10045 45.3076 4.30761C44.1005 5.51477 43.1429 6.94788 42.4896 8.52512C41.8363 10.1023 41.5 11.7928 41.5 13.5C41.5 16.9478 42.8696 20.2544 45.3076 22.6924C47.7456 25.1304 51.0522 26.5 54.5 26.5C57.9478 26.5 61.2544 25.1304 63.6924 22.6924C66.1304 20.2544 67.5 16.9478 67.5 13.5Z" stroke="white" stroke-linecap="round" stroke-linejoin="round"/>
</svg>
