<svg width="24" height="24" viewBox="0 0 24 24" fill="none" xmlns="http://www.w3.org/2000/svg">
<path d="M3 6L6 2H18L21 6M3 6V20C3 20.5304 3.21071 21.0391 3.58579 21.4142C3.96086 21.7893 4.46957 22 5 22H19C19.5304 22 20.0391 21.7893 20.4142 21.4142C20.7893 21.0391 21 20.5304 21 20V6M3 6H21M16.0001 9.99997C16.0001 11.0608 15.5786 12.0783 14.8285 12.8284C14.0783 13.5785 13.0609 14 12.0001 14C10.9392 14 9.92178 13.5785 9.17163 12.8284C8.42149 12.0783 8.00006 11.0608 8.00006 9.99997" stroke="#9A9FAE" stroke-width="1.5" stroke-linecap="round" stroke-linejoin="round"/>
</svg>
