<svg width="16" height="16" viewBox="0 0 16 16" fill="none" xmlns="http://www.w3.org/2000/svg">
<path d="M12.6663 6.6665V7.99984C12.6663 9.23751 12.1747 10.4245 11.2995 11.2997C10.4243 12.1748 9.23735 12.6665 7.99968 12.6665M7.99968 12.6665C6.762 12.6665 5.57501 12.1748 4.69984 11.2997C3.82467 10.4245 3.33301 9.23751 3.33301 7.99984V6.6665M7.99968 12.6665V15.3332M5.33301 15.3332H10.6663M7.99968 0.666504C7.46924 0.666504 6.96053 0.877218 6.58546 1.25229C6.21039 1.62736 5.99967 2.13607 5.99967 2.6665V7.99984C5.99967 8.53027 6.21039 9.03898 6.58546 9.41405C6.96053 9.78912 7.46924 9.99984 7.99968 9.99984C8.53011 9.99984 9.03882 9.78912 9.41389 9.41405C9.78896 9.03898 9.99968 8.53027 9.99968 7.99984V2.6665C9.99968 2.13607 9.78896 1.62736 9.41389 1.25229C9.03882 0.877218 8.53011 0.666504 7.99968 0.666504Z" stroke="#1A1D26" stroke-linecap="round" stroke-linejoin="round"/>
</svg>
