<svg width="71" height="24" viewBox="0 0 71 24" fill="none" xmlns="http://www.w3.org/2000/svg">
<g clip-path="url(#clip0_1267_21931)">
<path d="M30.2144 12.3081C30.2144 15.6394 27.6068 18.0941 24.4065 18.0941C21.2063 18.0941 18.5986 15.6394 18.5986 12.3081C18.5986 8.95328 21.2063 6.52197 24.4065 6.52197C27.6068 6.52197 30.2144 8.95328 30.2144 12.3081ZM27.672 12.3081C27.672 10.2263 26.1607 8.80197 24.4065 8.80197C22.6524 8.80197 21.1411 10.2263 21.1411 12.3081C21.1411 14.3689 22.6524 15.8141 24.4065 15.8141C26.1607 15.8141 27.672 14.3663 27.672 12.3081Z" fill="#EA4335"/>
<path d="M42.7437 12.3081C42.7437 15.6394 40.1361 18.0941 36.9358 18.0941C33.7356 18.0941 31.1279 15.6394 31.1279 12.3081C31.1279 8.95589 33.7356 6.52197 36.9358 6.52197C40.1361 6.52197 42.7437 8.95328 42.7437 12.3081ZM40.2013 12.3081C40.2013 10.2263 38.69 8.80197 36.9358 8.80197C35.1817 8.80197 33.6704 10.2263 33.6704 12.3081C33.6704 14.3689 35.1817 15.8141 36.9358 15.8141C38.69 15.8141 40.2013 14.3663 40.2013 12.3081Z" fill="#FBBC05"/>
<path d="M54.7513 6.87154V17.2594C54.7513 21.5324 52.2298 23.2776 49.2488 23.2776C46.4427 23.2776 44.7539 21.402 44.117 19.8681L46.3305 18.9472C46.7247 19.8889 47.6905 21.0002 49.2462 21.0002C51.1543 21.0002 52.3368 19.8237 52.3368 17.6089V16.7768H52.248C51.679 17.4785 50.5827 18.0915 49.1992 18.0915C46.3044 18.0915 43.6523 15.5715 43.6523 12.3289C43.6523 9.06284 46.3044 6.52197 49.1992 6.52197C50.5801 6.52197 51.6764 7.13502 52.248 7.81589H52.3368V6.87415H54.7513V6.87154ZM52.5169 12.3289C52.5169 10.2915 51.1569 8.80197 49.4263 8.80197C47.6722 8.80197 46.2026 10.2915 46.2026 12.3289C46.2026 14.3455 47.6722 15.8141 49.4263 15.8141C51.1569 15.8141 52.5169 14.3455 52.5169 12.3289Z" fill="#4285F4"/>
<path d="M58.7317 0.782715V17.7392H56.252V0.782715H58.7317Z" fill="#34A853"/>
<path d="M68.3945 14.2121L70.3679 15.5269C69.731 16.4686 68.1961 18.0912 65.5441 18.0912C62.2551 18.0912 59.7988 15.5503 59.7988 12.3051C59.7988 8.86426 62.276 6.51904 65.2596 6.51904C68.264 6.51904 69.7336 8.90861 70.2139 10.1999L70.4775 10.8573L62.738 14.0608C63.3306 15.2217 64.252 15.8138 65.5441 15.8138C66.8388 15.8138 67.7367 15.1773 68.3945 14.2121ZM62.3204 12.1303L67.494 9.98339C67.2095 9.26078 66.3533 8.7573 65.3457 8.7573C64.0536 8.7573 62.2551 9.8973 62.3204 12.1303Z" fill="#EA4335"/>
<path d="M9.21151 10.8026V8.34778H17.4888C17.5697 8.7756 17.6114 9.28169 17.6114 9.82951C17.6114 11.6713 17.1076 13.9486 15.484 15.5713C13.9048 17.2147 11.8871 18.0913 9.21412 18.0913C4.25978 18.0913 0.09375 14.0582 0.09375 9.10691C0.09375 4.1556 4.25978 0.122559 9.21412 0.122559C11.9549 0.122559 13.9074 1.19734 15.3744 2.59821L13.6412 4.33038C12.5892 3.3443 11.164 2.57734 9.21151 2.57734C5.59364 2.57734 2.76408 5.49125 2.76408 9.10691C2.76408 12.7226 5.59364 15.6365 9.21151 15.6365C11.5582 15.6365 12.8946 14.6947 13.7508 13.8391C14.4451 13.1452 14.9019 12.1539 15.0821 10.7999L9.21151 10.8026Z" fill="#4285F4"/>
</g>
<defs>
<clipPath id="clip0_1267_21931">
<rect width="71" height="24" fill="white"/>
</clipPath>
</defs>
</svg>
