<svg width="26" height="26" viewBox="0 0 26 26" fill="none" xmlns="http://www.w3.org/2000/svg">
<path d="M22.4429 24.4895H22.443C22.9312 24.4889 23.3993 24.2947 23.7445 23.9495C24.0898 23.6043 24.284 23.1362 24.2846 22.648V22.6478V17.9471C24.2846 17.8208 24.2344 17.6996 24.145 17.6103C24.0557 17.5209 23.9345 17.4707 23.8082 17.4707C23.6819 17.4707 23.5607 17.5209 23.4714 17.6103C23.382 17.6996 23.3319 17.8208 23.3319 17.9471V22.6476C23.3315 22.8834 23.2377 23.1093 23.0711 23.276C22.9044 23.4427 22.6784 23.5365 22.4427 23.5368H2.41951C2.18379 23.5365 1.95781 23.4427 1.79113 23.276C1.62447 23.1094 1.53069 22.8834 1.53034 22.6477V7.19636L22.4427 7.19636C22.4427 7.19636 22.4428 7.19636 22.4428 7.19636C22.6785 7.19661 22.9045 7.29037 23.0712 7.45704C23.2379 7.62374 23.3316 7.84975 23.3319 8.08549V12.7864C23.3319 12.9128 23.382 13.0339 23.4714 13.1233C23.5607 13.2126 23.6819 13.2628 23.8082 13.2628C23.9345 13.2628 24.0557 13.2126 24.145 13.1233C24.2344 13.0339 24.2846 12.9128 24.2846 12.7864V8.08536V8.0852C24.284 7.59698 24.0898 7.12892 23.7445 6.78369C23.3993 6.43846 22.9312 6.24425 22.443 6.24365H22.4429H1.05399C0.927652 6.24365 0.80649 6.29384 0.717157 6.38317C0.627824 6.47251 0.577637 6.59367 0.577637 6.72L0.577637 22.6478L0.577637 22.6479C0.578136 23.1362 0.772318 23.6043 1.11757 23.9496C1.46283 24.2948 1.93095 24.489 2.41921 24.4895H2.41934H22.4429Z" fill="#1A1D26" stroke="#1A1D26" stroke-width="0.25"/>
<path d="M24.3582 18.4221H24.3583C24.6406 18.4218 24.9113 18.3094 25.1108 18.1096C25.3103 17.9099 25.4223 17.6392 25.4223 17.3569V13.376V13.3759C25.422 13.0938 25.3098 12.8233 25.1104 12.6238C24.9109 12.4242 24.6405 12.3119 24.3584 12.3115H24.3582H20.2435C19.4332 12.3115 18.6561 12.6334 18.0831 13.2064C17.5101 13.7794 17.1882 14.5565 17.1882 15.3668C17.1882 16.1771 17.5101 16.9542 18.0831 17.5272C18.6561 18.1002 19.4332 18.4221 20.2435 18.4221H24.3582ZM20.2435 13.2656H20.2435L24.358 13.2642C24.3876 13.2644 24.4159 13.2762 24.4368 13.2971C24.4578 13.3181 24.4696 13.3466 24.4696 13.3762L24.4696 17.3569L24.4696 17.358C24.4698 17.3727 24.467 17.3874 24.4614 17.401C24.4559 17.4147 24.4477 17.4271 24.4373 17.4376L24.5261 17.5255L24.4373 17.4376C24.4269 17.4481 24.4146 17.4564 24.401 17.4621L24.4492 17.5774L24.401 17.4621C24.3873 17.4678 24.3727 17.4707 24.358 17.4708H20.2435C19.9674 17.4708 19.694 17.4164 19.4389 17.3107C19.1838 17.2051 18.952 17.0502 18.7568 16.8549C18.5615 16.6597 18.4066 16.4279 18.301 16.1728C18.1953 15.9177 18.1409 15.6443 18.1409 15.3682C18.1409 15.0921 18.1953 14.8187 18.301 14.5636C18.4066 14.3085 18.5615 14.0767 18.7568 13.8815C18.952 13.6862 19.1838 13.5313 19.4389 13.4257C19.694 13.32 19.9674 13.2656 20.2435 13.2656Z" fill="#1A1D26" stroke="#1A1D26" stroke-width="0.25"/>
<path d="M0.826593 6.98853L0.746149 7.08346C0.660123 7.01056 0.602747 6.9095 0.584228 6.79827C0.565709 6.68705 0.587247 6.57285 0.645013 6.47601C0.702778 6.37917 0.793023 6.30597 0.899694 6.26941L0.899703 6.26941L14.3649 1.65652C14.3649 1.65652 14.3649 1.65652 14.3649 1.65652C14.7684 1.51819 15.1992 1.4782 15.6213 1.53987C16.0434 1.60153 16.4447 1.76308 16.7918 2.01107C17.139 2.25906 17.4219 2.58634 17.617 2.96568C17.8122 3.34503 17.914 3.76548 17.9139 4.19208V6.72004C17.9139 6.84638 17.8637 6.96754 17.7744 7.05687C17.6851 7.14621 17.5639 7.19639 17.4376 7.19639C17.3112 7.19639 17.1901 7.14621 17.1007 7.05687C17.0114 6.96754 16.9612 6.84638 16.9612 6.72004V4.19207C16.9612 3.91712 16.8955 3.64614 16.7697 3.40165C16.6439 3.15717 16.4616 2.94625 16.2378 2.78641C16.0141 2.62658 15.7555 2.52245 15.4834 2.48269C15.2113 2.44292 14.9337 2.46866 14.6736 2.55778L14.6331 2.43953L14.6736 2.55778L1.20857 7.17062C1.20853 7.17063 1.2085 7.17064 1.20846 7.17065L1.2084 7.17067L0.826593 6.98853ZM0.826593 6.98853L0.746149 7.08346M0.826593 6.98853L0.746149 7.08346M1.0539 7.19639C1.05395 7.19639 1.05399 7.19639 1.05403 7.19639L1.05405 7.07139L1.0539 7.19639ZM1.0539 7.19639C0.941189 7.19634 0.832142 7.15633 0.746149 7.08346M1.0539 7.19639L0.746149 7.08346" fill="#1A1D26" stroke="#1A1D26" stroke-width="0.25"/>
<path d="M21.7683 15.3668V15.3667C21.7683 15.0924 21.687 14.8243 21.5346 14.5963C21.3822 14.3683 21.1657 14.1905 20.9123 14.0856C20.659 13.9806 20.3802 13.9531 20.1112 14.0066C19.8422 14.0601 19.5951 14.1921 19.4012 14.386C19.2072 14.5799 19.0751 14.8269 19.0216 15.0959C18.968 15.3649 18.9954 15.6437 19.1003 15.8971C19.2052 16.1505 19.3829 16.3671 19.6109 16.5195C19.8389 16.6719 20.1069 16.7533 20.3812 16.7534H20.3813C20.749 16.7532 21.1016 16.607 21.3617 16.3471C21.6217 16.0871 21.768 15.7345 21.7683 15.3668ZM20.1401 15.0062C20.2115 14.9585 20.2954 14.933 20.3812 14.933C20.4963 14.933 20.6066 14.9787 20.688 15.0601C20.7694 15.1414 20.8152 15.2517 20.8152 15.3668C20.8153 15.4526 20.7899 15.5366 20.7422 15.608C20.6946 15.6794 20.6268 15.735 20.5475 15.7679C20.4682 15.8008 20.3809 15.8094 20.2967 15.7927C20.2125 15.776 20.1352 15.7347 20.0744 15.674C20.0137 15.6133 19.9724 15.536 19.9556 15.4518C19.9388 15.3676 19.9474 15.2803 19.9802 15.201C20.0131 15.1217 20.0687 15.0539 20.1401 15.0062Z" fill="#1A1D26" stroke="#1A1D26" stroke-width="0.25"/>
</svg>
