<svg width="24" height="24" viewBox="0 0 24 24" fill="none" xmlns="http://www.w3.org/2000/svg">
<path d="M18.5545 15.5355C17.6496 16.4404 16.3996 17 15.0189 17C13.1425 17 11.5075 15.9664 10.6522 14.4374H13.0332L13.7294 12.5625H10.0502C10.0295 12.3779 10.0189 12.1902 10.0189 12C10.0189 11.8098 10.0295 11.6221 10.0502 11.4374H14.3372L15.0333 9.5625H10.6523C11.5075 8.0336 13.1425 7 15.0189 7C16.3996 7 17.6496 7.55964 18.5545 8.46447L19.9687 7.05025C18.7019 5.7835 16.9519 5 15.0189 5C12.0101 5 9.44473 6.89827 8.45498 9.5625H6.03332L5.33716 11.4374H8.04119C8.02644 11.623 8.01892 11.8106 8.01892 12C8.01892 12.1894 8.02643 12.3769 8.04119 12.5625H4.72937L4.0332 14.4374H8.45496C9.44468 17.1017 12.0101 19 15.0189 19C16.9519 19 18.7019 18.2165 19.9687 16.9497L18.5545 15.5355Z" fill="black"/>
</svg>
