<svg width="23" height="23" viewBox="0 0 23 23" fill="none" xmlns="http://www.w3.org/2000/svg">
<path d="M8.23208 12.9469L14.7775 16.7611M14.7679 6.23859L8.23208 10.0528M20.125 4.7915C20.125 6.37932 18.8378 7.6665 17.25 7.6665C15.6622 7.6665 14.375 6.37932 14.375 4.7915C14.375 3.20369 15.6622 1.9165 17.25 1.9165C18.8378 1.9165 20.125 3.20369 20.125 4.7915ZM8.625 11.4998C8.625 13.0877 7.33782 14.3748 5.75 14.3748C4.16218 14.3748 2.875 13.0877 2.875 11.4998C2.875 9.91202 4.16218 8.62484 5.75 8.62484C7.33782 8.62484 8.625 9.91202 8.625 11.4998ZM20.125 18.2082C20.125 19.796 18.8378 21.0832 17.25 21.0832C15.6622 21.0832 14.375 19.796 14.375 18.2082C14.375 16.6204 15.6622 15.3332 17.25 15.3332C18.8378 15.3332 20.125 16.6204 20.125 18.2082Z" stroke="#9A9FAE" stroke-width="1.5" stroke-linecap="round" stroke-linejoin="round"/>
</svg>
