<svg width="24" height="24" viewBox="0 0 24 24" fill="none" xmlns="http://www.w3.org/2000/svg">
<path d="M7.17222 18.0249C5.81662 17.2863 4.69522 16.1661 3.95526 14.791C3.01664 13.0468 2.75847 11.0164 3.23071 9.09276C3.70295 7.16914 4.87201 5.4891 6.51164 4.37781C8.15127 3.26652 10.1449 2.80301 12.1066 3.07698L11.67 6.20265C10.4822 6.03676 9.2751 6.31741 8.28231 6.9903C7.28951 7.66318 6.58164 8.68045 6.2957 9.8452C6.00976 11.01 6.16608 12.2394 6.73442 13.2955C7.18247 14.1281 7.86148 14.8064 8.6823 15.2536L14.8278 3.97543L17.4621 5.41086C18.8177 6.14952 19.9391 7.26967 20.679 8.64475C21.6177 10.389 21.8758 12.4194 21.4036 14.343C20.9314 16.2667 19.7623 17.9467 18.1227 19.058C16.483 20.1693 14.4894 20.6328 12.5277 20.3588L12.9643 17.2331C14.1521 17.399 15.3592 17.1184 16.352 16.4455C17.3448 15.7726 18.0527 14.7553 18.3386 13.5906C18.6245 12.4258 18.4682 11.1964 17.8999 10.1403C17.4518 9.30767 16.7728 8.62944 15.952 8.18218L9.80647 19.4604L7.17222 18.0249Z" fill="black"/>
</svg>
