<svg width="26" height="26" viewBox="0 0 26 26" fill="none" xmlns="http://www.w3.org/2000/svg">
<path d="M7.93459 0.764706H18.0654L25.2353 7.93459V18.0654L18.0654 25.2353H7.93459L0.764706 18.0654V7.93459L7.93459 0.764706Z" stroke="#9A9FAE" stroke-width="1.5" stroke-linecap="round" stroke-linejoin="round"/>
<path d="M11.475 18.1541L15.9973 8.24328M10.1347 9.84473C10.9167 10.2015 11.2613 11.1247 10.9045 11.9066C10.5477 12.6885 9.62459 13.0332 8.84265 12.6764C8.06071 12.3196 7.71606 11.3965 8.07286 10.6145C8.42966 9.83258 9.35279 9.48793 10.1347 9.84473ZM18.6297 13.721C19.4117 14.0778 19.7563 15.0009 19.3995 15.7829C19.0427 16.5648 18.1196 16.9094 17.3376 16.5526C16.5557 16.1958 16.211 15.2727 16.5678 14.4908C16.9246 13.7088 17.8478 13.3642 18.6297 13.721Z" stroke="#9A9FAE" stroke-width="1.5" stroke-linecap="round" stroke-linejoin="round"/>
</svg>
