<svg width="24" height="24" viewBox="0 0 24 24" fill="none" xmlns="http://www.w3.org/2000/svg">
<path fill-rule="evenodd" clip-rule="evenodd" d="M6.07104 3.17291C4.3252 3.5202 2.72156 4.37738 1.46289 5.63605L3.59259 7.76575C4.43005 6.92835 5.49707 6.35803 6.65863 6.12695C7.53491 5.95264 8.4353 5.9773 9.29449 6.19452C9.07837 6.45056 8.87598 6.71936 8.68854 6.99988C7.69958 8.47992 7.17175 10.22 7.17175 12C7.17175 13.78 7.69958 15.5201 8.68854 17.0001C8.87598 17.2806 9.07843 17.5494 9.29456 17.8055C8.43536 18.0227 7.53491 18.0474 6.65863 17.873C5.49707 17.642 4.43005 17.0717 3.59259 16.2343L1.46289 18.364C2.72156 19.6226 4.3252 20.4798 6.07104 20.8271C7.81683 21.1743 9.62646 20.9961 11.271 20.3149C11.5194 20.212 11.7625 20.0983 11.9993 19.9744C12.2362 20.0983 12.4792 20.212 12.7276 20.3149C14.3721 20.9961 16.1818 21.1743 17.9276 20.8271C19.6734 20.4798 21.277 19.6226 22.5357 18.364L20.406 16.2343C19.5685 17.0717 18.5015 17.642 17.34 17.873C16.4637 18.0474 15.5632 18.0227 14.704 17.8055C14.9202 17.5494 15.1226 17.2806 15.3101 17.0001C16.299 15.5201 16.8268 13.78 16.8268 12C16.8268 10.22 16.299 8.47992 15.3101 6.99988C15.1226 6.71936 14.9202 6.45056 14.7041 6.19452C15.5633 5.9773 16.4637 5.95264 17.34 6.12695C18.5015 6.35803 19.5685 6.92835 20.406 7.76575L22.5357 5.63605C21.277 4.37738 19.6734 3.5202 17.9276 3.17291C16.1818 2.82568 14.3721 3.00391 12.7276 3.68506C12.4792 3.78796 12.2362 3.90167 11.9993 4.02564C11.7625 3.90167 11.5194 3.78796 11.271 3.68506C9.62646 3.00391 7.81683 2.82568 6.07104 3.17291ZM11.9993 7.7049C11.6987 7.99695 11.428 8.32117 11.1928 8.67316C10.5349 9.6579 10.1837 10.8157 10.1837 12C10.1837 13.1843 10.5349 14.3421 11.1928 15.3268C11.428 15.6788 11.6987 16.0031 11.9993 16.2951C12.3 16.0031 12.5706 15.6788 12.8058 15.3268C13.4637 14.3421 13.8149 13.1843 13.8149 12C13.8149 10.8157 13.4637 9.6579 12.8058 8.67316C12.5706 8.32117 12.3 7.99695 11.9993 7.7049Z" fill="black"/>
</svg>
