<svg width="17" height="17" viewBox="0 0 17 17" fill="none" xmlns="http://www.w3.org/2000/svg">
<path d="M17 13.3571C17 13.9122 16.5501 14.3621 15.9951 14.3621H1.00489C0.449902 14.3621 0 13.9122 0 13.3571V3.64311C0 3.08809 0.449902 2.63818 1.00489 2.63818H15.9951C16.5501 2.63818 17 3.08812 17 3.64311V13.3571Z" fill="white"/>
<path d="M3.77314 8.56768L3.37397 6.65282C3.30574 6.38876 3.10718 6.3102 2.85909 6.2998H1.029L1.0127 6.3873C2.43807 6.73284 3.38121 7.56644 3.77314 8.56768Z" fill="#F79F1A"/>
<path d="M8.01362 6.33838H6.83116L6.09265 10.6723H7.27316L8.01362 6.33838Z" fill="#059BBF"/>
<path d="M4.49383 10.6679L6.35354 6.34131H5.10208L3.94518 9.2973L3.8217 8.85099C3.59492 8.31406 2.9468 7.54126 2.18591 7.05477L3.24343 10.6693L4.49383 10.6679Z" fill="#059BBF"/>
<path d="M11.3864 9.25546C11.3908 8.76343 11.0749 8.38813 10.3941 8.07815C9.98033 7.87793 9.72815 7.74442 9.73117 7.54125C9.73117 7.36176 9.94473 7.16895 10.4075 7.16895C10.7946 7.163 11.0734 7.24754 11.2915 7.33506L11.3983 7.38404L11.5585 6.44515C11.3242 6.35759 10.9578 6.26416 10.4995 6.26416C9.3322 6.26416 8.51052 6.85156 8.50308 7.69402C8.49564 8.31701 9.09051 8.66408 9.53839 8.8717C9.99816 9.08334 10.1524 9.21877 10.1495 9.40863C10.1465 9.69892 9.78307 9.8313 9.44343 9.8313C8.97028 9.8313 8.7196 9.76606 8.33082 9.6041L8.17974 9.5347L8.01379 10.5059C8.28948 10.6264 8.79965 10.7317 9.32924 10.7361C10.5706 10.7361 11.3775 10.1561 11.3864 9.25546Z" fill="#059BBF"/>
<path d="M12.791 10.0226C12.9259 10.0226 14.1318 10.0241 14.3039 10.0241C14.3395 10.175 14.4478 10.6737 14.4478 10.6737H15.5438L14.5872 6.34277H13.675C13.3917 6.34277 13.1811 6.4199 13.0565 6.70167L11.3019 10.6737H12.5434C12.5433 10.6737 12.745 10.1399 12.791 10.0226ZM13.6008 7.92385C13.5949 7.9357 13.6987 7.6732 13.758 7.51004L13.8381 7.88377C13.8381 7.88377 14.0636 8.91912 14.111 9.13567H13.1306C13.2285 8.88651 13.6008 7.92385 13.6008 7.92385Z" fill="#059BBF"/>
<path d="M15.9951 2.63818H1.00489C0.449902 2.63818 0 3.08808 0 3.6431V4.68608H17V3.6431C17 3.08808 16.5501 2.63818 15.9951 2.63818Z" fill="#059BBF"/>
<path d="M15.9951 14.3619H1.00489C0.449902 14.3619 0 13.9119 0 13.3569V12.314H17V13.3569C17 13.9119 16.5501 14.3619 15.9951 14.3619Z" fill="#F79F1A"/>
<path opacity="0.15" d="M0.714432 13.3571V3.64311C0.714432 3.08809 1.16437 2.63818 1.71939 2.63818H1.00486C0.449902 2.63818 0 3.08809 0 3.64311V13.3572C0 13.9122 0.449902 14.3621 1.00489 14.3621H1.71942C1.1644 14.3621 0.714432 13.9122 0.714432 13.3571Z" fill="#202121"/>
</svg>
