<svg width="29" height="29" viewBox="0 0 29 29" fill="none" xmlns="http://www.w3.org/2000/svg">
<path d="M14.4974 5.60604C16.5746 5.57408 18.5835 6.34794 20.1024 7.76522L24.1935 3.76466C21.5687 1.30514 18.0942 -0.0435209 14.4974 0.00107158C11.81 0.000450604 9.17541 0.747429 6.88826 2.15847C4.6011 3.56951 2.75156 5.58898 1.54647 7.99104L6.23423 11.6306C6.80743 9.88769 7.91326 8.36871 9.39579 7.28782C10.8783 6.20694 12.6627 5.61869 14.4974 5.60604Z" fill="#EA4335"/>
<path d="M28.4145 14.8207C28.4315 13.8242 28.3286 12.8292 28.1078 11.8573H14.4975V17.2378H22.4875C22.3359 18.1811 21.9951 19.0841 21.4856 19.8923C20.9761 20.7005 20.3084 21.3974 19.5226 21.9409L24.0975 25.4842C25.5232 24.1077 26.6445 22.4474 27.3888 20.6107C28.1331 18.7739 28.4839 16.8015 28.4186 14.8207H28.4145Z" fill="#4285F4"/>
<path d="M6.25083 17.3647C5.93387 16.4418 5.77047 15.4732 5.76714 14.4974C5.77292 13.5232 5.93046 12.5558 6.2341 11.6301L1.54634 7.99058C0.529602 10.0092 0 12.2379 0 14.4981C0 16.7583 0.529602 18.9871 1.54634 21.0056L6.25083 17.3647Z" fill="#FBBC05"/>
<path d="M14.4975 28.9949C18.0287 29.0947 21.464 27.8382 24.0975 25.4836L19.5226 21.9402C18.0393 22.9347 16.2826 23.4414 14.4975 23.3899C12.6644 23.379 10.8813 22.7912 9.40106 21.7098C7.92085 20.6284 6.81873 19.1084 6.25105 17.3654L1.56329 21.0063C2.76513 23.4073 4.61164 25.4263 6.89604 26.8372C9.18044 28.2481 11.8125 28.9952 14.4975 28.9949Z" fill="#34A853"/>
</svg>
