<svg width="19" height="23" viewBox="0 0 19 23" fill="none" xmlns="http://www.w3.org/2000/svg">
<path fill-rule="evenodd" clip-rule="evenodd" d="M0.122895 9.48507C-0.139258 8.76628 0.0179973 7.92903 0.594661 7.35237L7.05504 0.891992C8.24436 -0.29733 10.1726 -0.297331 11.362 0.891992L17.8223 7.35237C18.3991 7.9291 18.5563 8.76647 18.294 9.48531C18.327 9.5853 18.3448 9.69214 18.3448 9.80316V20.9698C18.3448 22.0911 17.4358 23.0001 16.3145 23.0001H2.10236C0.981059 23.0001 0.0720625 22.0911 0.0720625 20.9698V9.80316C0.0720625 9.69206 0.0899102 9.58513 0.122895 9.48507ZM2.0303 8.78801L8.49068 2.32763C8.88712 1.93119 9.52988 1.93119 9.92632 2.32763L16.3867 8.78801H16.3559V8.81878L9.92632 15.2484C9.52988 15.6448 8.88712 15.6448 8.49068 15.2484L2.0303 8.78801ZM16.3145 11.7315L11.362 16.684C10.1726 17.8733 8.24436 17.8734 7.05504 16.684L2.10236 11.7314L2.10236 20.9698H16.3145V11.7315Z" fill="black"/>
</svg>
