<svg width="24" height="24" viewBox="0 0 24 24" fill="none" xmlns="http://www.w3.org/2000/svg">
<path d="M10.5441 19C14.4101 19 17.5441 15.866 17.5441 12C17.5441 8.13401 14.4101 5 10.5441 5C8.61112 5 6.86112 5.7835 5.59437 7.05025L3.47307 4.92896L3.45508 4.94694C5.26612 3.12672 7.77354 2 10.5441 2C16.067 2 20.5441 6.47715 20.5441 12C20.5441 17.5228 16.067 22 10.5441 22C7.7827 22 5.28271 20.8807 3.47307 19.0711L5.59439 16.9498C6.86114 18.2165 8.61113 19 10.5441 19Z" fill="black"/>
<path d="M10.5441 14C11.1372 14 11.67 13.7418 12.0363 13.3317L14.159 15.4544C13.2486 16.4068 11.9656 17 10.5441 17C7.78268 17 5.54411 14.7614 5.54411 12C5.54411 9.23858 7.78268 7 10.5441 7C11.9656 7 13.2486 7.59323 14.159 8.54563L12.0363 10.6683C11.6701 10.2582 11.1372 10 10.5441 10C9.43954 10 8.54411 10.8954 8.54411 12C8.54411 13.1046 9.43954 14 10.5441 14Z" fill="black"/>
</svg>
