<svg width="25" height="31" viewBox="0 0 25 31" fill="none" xmlns="http://www.w3.org/2000/svg">
<path d="M24.1393 12.8204C24.1393 22.199 12.4508 30.2377 12.4508 30.2377C12.4508 30.2377 0.762295 22.199 0.762295 12.8204C0.762295 9.6224 1.99376 6.55537 4.18578 4.29404C6.37781 2.0327 9.35083 0.762295 12.4508 0.762295C15.5508 0.762295 18.5238 2.0327 20.7159 4.29404C22.9079 6.55537 24.1393 9.6224 24.1393 12.8204Z" stroke="#9A9FAE" stroke-width="1.5" stroke-linecap="round" stroke-linejoin="round"/>
<path d="M12.4508 16.8398C14.6026 16.8398 16.347 15.0403 16.347 12.8204C16.347 10.6006 14.6026 8.80104 12.4508 8.80104C10.299 8.80104 8.55464 10.6006 8.55464 12.8204C8.55464 15.0403 10.299 16.8398 12.4508 16.8398Z" stroke="#9A9FAE" stroke-width="1.5" stroke-linecap="round" stroke-linejoin="round"/>
</svg>
