<svg width="31" height="26" viewBox="0 0 31 26" fill="none" xmlns="http://www.w3.org/2000/svg">
<path d="M30.2459 22.2027C30.2459 22.9137 29.9634 23.5957 29.4606 24.0985C28.9578 24.6013 28.2759 24.8838 27.5648 24.8838H3.43513C2.72406 24.8838 2.04212 24.6013 1.53932 24.0985C1.03652 23.5957 0.754053 22.9137 0.754053 22.2027V7.45675C0.754053 6.74568 1.03652 6.06374 1.53932 5.56094C2.04212 5.05814 2.72406 4.77567 3.43513 4.77567H8.79729L11.4784 0.754053H19.5216L22.2027 4.77567H27.5648C28.2759 4.77567 28.9578 5.05814 29.4606 5.56094C29.9634 6.06374 30.2459 6.74568 30.2459 7.45675V22.2027Z" stroke="white" stroke-width="1.5" stroke-linecap="round" stroke-linejoin="round"/>
<path d="M15.5 19.5216C18.4614 19.5216 20.8621 17.1209 20.8621 14.1594C20.8621 11.198 18.4614 8.79729 15.5 8.79729C12.5385 8.79729 10.1378 11.198 10.1378 14.1594C10.1378 17.1209 12.5385 19.5216 15.5 19.5216Z" stroke="white" stroke-width="1.5" stroke-linecap="round" stroke-linejoin="round"/>
</svg>
