<svg width="24" height="24" viewBox="0 0 24 24" fill="none" xmlns="http://www.w3.org/2000/svg">
<path d="M20.273 9.86895L16.8315 4.95404L18.4698 3.80688L21.9113 8.7218L20.273 9.86895Z" fill="black"/>
<path d="M18.3891 12.4087L16.6684 9.95133L8.47691 15.6871L10.1976 18.1445L8.55931 19.2917L3.9707 12.7385L5.60901 11.5913L7.32976 14.0488L15.5213 8.31303L13.8005 5.85553L15.4388 4.70837L20.0275 11.2616L18.3891 12.4087Z" fill="black"/>
<path d="M20.7642 7.08343L22.4025 5.93628L21.2553 4.29797L19.617 5.44513L20.7642 7.08343Z" fill="black"/>
<path d="M7.16662 19.0461L3.72516 14.1312L2.08685 15.2783L5.52831 20.1932L7.16662 19.0461Z" fill="black"/>
<path d="M4.38116 18.555L2.74286 19.7021L1.5957 18.0638L3.23401 16.9167L4.38116 18.555Z" fill="black"/>
</svg>
