<svg width="24" height="24" viewBox="0 0 24 24" fill="none" xmlns="http://www.w3.org/2000/svg">
<path fill-rule="evenodd" clip-rule="evenodd" d="M7.75635 6.34323L11.999 2.10059L16.2416 6.34323L11.999 10.5859L7.75635 6.34323ZM10.5848 6.34323L11.999 4.92901L13.4132 6.34323L11.999 7.75744L10.5848 6.34323Z" fill="black"/>
<path fill-rule="evenodd" clip-rule="evenodd" d="M2.09961 12L6.34225 7.75739L10.5849 12L6.34225 16.2427L2.09961 12ZM4.92804 12L6.34225 10.5858L7.75646 12L6.34225 13.4142L4.92804 12Z" fill="black"/>
<path fill-rule="evenodd" clip-rule="evenodd" d="M13.4133 12L17.656 16.2427L21.8986 12L17.656 7.75739L13.4133 12ZM17.656 10.5858L16.2418 12L17.656 13.4142L19.0702 12L17.656 10.5858Z" fill="black"/>
<path fill-rule="evenodd" clip-rule="evenodd" d="M7.75635 17.657L11.999 13.4144L16.2416 17.657L11.999 21.8996L7.75635 17.657ZM10.5848 17.657L11.999 16.2428L13.4132 17.657L11.999 19.0712L10.5848 17.657Z" fill="black"/>
</svg>
