<svg width="24" height="24" viewBox="0 0 24 24" fill="none" xmlns="http://www.w3.org/2000/svg">
<path fill-rule="evenodd" clip-rule="evenodd" d="M14.6729 17.4379C12.3052 18.5419 9.58525 17.968 7.85389 16.204L21.8641 9.6708C21.7099 9.02975 21.4897 8.39453 21.2002 7.77382C18.8662 2.76842 12.9164 0.602872 7.91097 2.93693C2.90557 5.27098 0.740018 11.2208 3.07407 16.2262C5.40813 21.2316 11.3579 23.3971 16.3633 21.0631C19.0154 19.8264 20.8703 17.5746 21.681 14.9861H17.3419C16.7479 16.0236 15.8388 16.8942 14.6729 17.4379ZM9.60144 6.56216C7.23381 7.66621 5.92517 10.1186 6.16348 12.5787L16.4203 7.79589C14.6889 6.032 11.9691 5.45811 9.60144 6.56216Z" fill="black"/>
</svg>
