<svg width="24" height="24" viewBox="0 0 24 24" fill="none" xmlns="http://www.w3.org/2000/svg">
<path d="M23 19C23 19.5304 22.7893 20.0391 22.4142 20.4142C22.0391 20.7893 21.5304 21 21 21H3C2.46957 21 1.96086 20.7893 1.58579 20.4142C1.21071 20.0391 1 19.5304 1 19V8C1 7.46957 1.21071 6.96086 1.58579 6.58579C1.96086 6.21071 2.46957 6 3 6H7L9 3H15L17 6H21C21.5304 6 22.0391 6.21071 22.4142 6.58579C22.7893 6.96086 23 7.46957 23 8V19Z" stroke="white" stroke-linecap="round" stroke-linejoin="round"/>
<path d="M11.5625 13.25L10 15.125M10 15.125L11.5625 17M10 15.125L13.75 15.125C14.0815 15.125 14.3995 14.967 14.6339 14.6857C14.8683 14.4044 15 14.0228 15 13.625L15 11" stroke="white" stroke-linecap="round" stroke-linejoin="round"/>
<path d="M12.125 11.125L14 9.5625M14 9.5625L12.125 8M14 9.5625L9.5 9.5625C9.10218 9.5625 8.72064 9.6942 8.43934 9.92862C8.15804 10.163 8 10.481 8 10.8125L8 13" stroke="white" stroke-linecap="round" stroke-linejoin="round"/>
</svg>
