<svg width="24" height="24" viewBox="0 0 24 24" fill="none" xmlns="http://www.w3.org/2000/svg">
<path fill-rule="evenodd" clip-rule="evenodd" d="M14.9229 18V14C14.9229 12.3431 13.5798 11 11.9229 11C10.2661 11 8.92294 12.3431 8.92294 14V18C8.92294 19.6569 10.2661 21 11.9229 21C13.5798 21 14.9229 19.6569 14.9229 18ZM11.9229 9C9.16152 9 6.92294 11.2386 6.92294 14V18C6.92294 20.7614 9.16152 23 11.9229 23C14.6844 23 16.9229 20.7614 16.9229 18V14C16.9229 11.2386 14.6844 9 11.9229 9Z" fill="black"/>
<path d="M10.9229 14C10.9229 13.4477 11.3707 13 11.9229 13C12.4752 13 12.9229 13.4477 12.9229 14V17H10.9229V14Z" fill="black"/>
<path d="M11.9229 1C14.7017 1 17.2158 2.13339 19.028 3.96311L17.6138 5.37735C16.1635 3.90955 14.1494 3 11.9229 3C9.77375 3 7.8225 3.84749 6.38516 5.22651L4.9707 3.81205C6.77019 2.07122 9.22146 1 11.9229 1Z" fill="black"/>
<path fill-rule="evenodd" clip-rule="evenodd" d="M11.9227 5C13.5802 5 15.1032 5.5761 16.3023 6.53898L14.8762 7.9651C14.0486 7.35833 13.0275 7 11.9227 7C10.8474 7 9.85143 7.33943 9.03601 7.91699L7.60718 6.48816C8.79625 5.55586 10.2946 5 11.9227 5Z" fill="black"/>
</svg>
