<svg width="22" height="17" viewBox="0 0 22 17" fill="none" xmlns="http://www.w3.org/2000/svg">
<path fill-rule="evenodd" clip-rule="evenodd" d="M17.0323 5.73957C17.4243 5.73957 17.7417 5.41813 17.7417 5.02212C17.7417 4.62611 17.4243 4.30467 17.0323 4.30467C16.6403 4.30467 16.3229 4.62611 16.3229 5.02212C16.3229 5.41813 16.6403 5.73957 17.0323 5.73957ZM1.41877 1.4359C1.41877 1.03889 1.73316 0.718453 2.12815 0.718453H3.54894C3.94091 0.718453 4.25732 1.03687 4.25732 1.4359V2.15234H1.41877V1.4359ZM11.0005 13.6315C8.84413 13.6315 7.09687 11.8651 7.09687 9.68552C7.09687 7.50597 8.84413 5.73957 11.0005 5.73957C13.1549 5.73957 14.9031 7.50597 14.9031 9.68552C14.9031 11.8651 13.1549 13.6315 11.0005 13.6315ZM11.0005 14.7066C13.7433 14.7066 15.9672 12.4586 15.9672 9.68552C15.9672 6.91247 13.7433 4.6634 11.0005 4.6634C8.25567 4.6634 6.03178 6.91247 6.03178 9.68552C6.03178 12.4586 8.25567 14.7066 11.0005 14.7066ZM5.21156 3.22851L7.01626 0.566298C7.25608 0.253927 7.77099 0 8.15792 0H13.8421C14.232 0 14.7439 0.253927 14.9837 0.566298L16.7894 3.22851H20.5812C21.3652 3.22851 22 3.86937 22 4.66138V15.0674C22 15.8584 21.3652 16.5002 20.5812 16.5002H1.41776C0.634819 16.5002 0 15.8604 0 15.0674V4.66138C0 3.87038 0.634819 3.22851 1.41776 3.22851H5.21156Z" fill="white"/>
</svg>
