<svg width="10" height="10" viewBox="0 0 10 10" fill="none" xmlns="http://www.w3.org/2000/svg">
<path fill-rule="evenodd" clip-rule="evenodd" d="M5.98525 4.84625L9.45625 1.37525C9.77025 1.06125 9.77025 0.55125 9.45625 0.23625C9.14125 -0.07875 8.63125 -0.07875 8.31625 0.23625L4.84525 3.70725L1.37525 0.23625C1.06025 -0.07875 0.55025 -0.07875 0.23625 0.23625C-0.07875 0.55125 -0.07875 1.06125 0.23625 1.37525L3.70725 4.84625L0.23625 8.31725C-0.07875 8.63225 -0.07875 9.14125 0.23625 9.45625C0.39325 9.61425 0.59925 9.69225 0.80525 9.69225C1.01125 9.69225 1.21725 9.61425 1.37525 9.45625L4.84525 5.98625L8.31625 9.45625C8.47325 9.61425 8.68025 9.69225 8.88625 9.69225C9.09225 9.69225 9.29825 9.61425 9.45625 9.45625C9.77025 9.14125 9.77025 8.63225 9.45625 8.31725L5.98525 4.84625Z" fill="white"/>
</svg>
