<svg width="375" height="90" viewBox="0 0 375 90" fill="none" xmlns="http://www.w3.org/2000/svg">
<rect width="375" height="44" fill="white"/>
<path d="M34.9886 18.2045C35.5076 18.2083 36.0189 18.303 36.5227 18.4886C37.0265 18.6742 37.4811 18.9773 37.8864 19.3977C38.2955 19.8182 38.6212 20.3864 38.8636 21.1023C39.1098 21.8144 39.2348 22.7008 39.2386 23.7614C39.2386 24.7803 39.1364 25.6875 38.9318 26.483C38.7273 27.2746 38.4337 27.9432 38.0511 28.4886C37.6723 29.0341 37.2121 29.4489 36.6705 29.733C36.1288 30.017 35.5189 30.1591 34.8409 30.1591C34.1477 30.1591 33.5322 30.0227 32.9943 29.75C32.4564 29.4773 32.0189 29.1004 31.6818 28.6193C31.3447 28.1345 31.1345 27.5777 31.0511 26.9489H32.7841C32.8977 27.4489 33.1288 27.8542 33.4773 28.1648C33.8295 28.4716 34.2841 28.625 34.8409 28.625C35.6932 28.625 36.358 28.2538 36.8352 27.5114C37.3125 26.7652 37.553 25.7235 37.5568 24.3864H37.4659C37.2689 24.7121 37.0227 24.9924 36.7273 25.2273C36.4356 25.4621 36.108 25.6439 35.7443 25.7727C35.3807 25.9015 34.9924 25.9659 34.5795 25.9659C33.9091 25.9659 33.2992 25.8011 32.75 25.4716C32.2008 25.142 31.7633 24.6894 31.4375 24.1136C31.1117 23.5379 30.9489 22.8807 30.9489 22.142C30.9489 21.4072 31.1155 20.7405 31.4489 20.142C31.786 19.5436 32.2557 19.0701 32.858 18.7216C33.464 18.3693 34.1742 18.197 34.9886 18.2045ZM34.9943 19.6818C34.5511 19.6818 34.1515 19.7917 33.7955 20.0114C33.4432 20.2273 33.1648 20.5208 32.9602 20.892C32.7557 21.2595 32.6534 21.6686 32.6534 22.1193C32.6534 22.5701 32.7519 22.9792 32.9489 23.3466C33.1496 23.7102 33.4223 24 33.767 24.2159C34.1155 24.428 34.5133 24.5341 34.9602 24.5341C35.2936 24.5341 35.6042 24.4697 35.892 24.3409C36.1799 24.2121 36.4318 24.0341 36.6477 23.8068C36.8636 23.5758 37.0322 23.3144 37.1534 23.0227C37.2746 22.7311 37.3352 22.4242 37.3352 22.1023C37.3352 21.6742 37.233 21.2765 37.0284 20.9091C36.8277 20.5417 36.5511 20.2462 36.1989 20.0227C35.8466 19.7955 35.4451 19.6818 34.9943 19.6818ZM42.4332 28.5568C42.1226 28.5568 41.8556 28.447 41.6321 28.2273C41.4086 28.0038 41.2969 27.7348 41.2969 27.4205C41.2969 27.1098 41.4086 26.8447 41.6321 26.625C41.8556 26.4015 42.1226 26.2898 42.4332 26.2898C42.7438 26.2898 43.0109 26.4015 43.2344 26.625C43.4579 26.8447 43.5696 27.1098 43.5696 27.4205C43.5696 27.6288 43.5166 27.8201 43.4105 27.9943C43.3082 28.1648 43.1719 28.3011 43.0014 28.4034C42.831 28.5057 42.6416 28.5568 42.4332 28.5568ZM42.4332 22.7273C42.1226 22.7273 41.8556 22.6174 41.6321 22.3977C41.4086 22.1742 41.2969 21.9053 41.2969 21.5909C41.2969 21.2803 41.4086 21.0152 41.6321 20.7955C41.8556 20.572 42.1226 20.4602 42.4332 20.4602C42.7438 20.4602 43.0109 20.572 43.2344 20.7955C43.4579 21.0152 43.5696 21.2803 43.5696 21.5909C43.5696 21.7992 43.5166 21.9905 43.4105 22.1648C43.3082 22.3352 43.1719 22.4716 43.0014 22.5739C42.831 22.6761 42.6416 22.7273 42.4332 22.7273ZM45.5781 27.7273V26.3068L50.6065 18.3636H51.7259V20.4545H51.0156L47.419 26.1477V26.2386H54.3111V27.7273H45.5781ZM51.0952 30V27.2955L51.1065 26.6477V18.3636H52.7713V30H51.0952ZM60.5497 18.3636V30H58.7884V20.125H58.7202L55.9361 21.9432V20.2614L58.8395 18.3636H60.5497Z" fill="#090A0A"/>
<path fill-rule="evenodd" clip-rule="evenodd" d="M305 20.5H304C303.448 20.5 303 20.9197 303 21.4375V29.5625C303 30.0803 303.448 30.5 304 30.5H305C305.552 30.5 306 30.0803 306 29.5625V21.4375C306 20.9197 305.552 20.5 305 20.5ZM299 22.5H300C300.552 22.5 301 22.9298 301 23.46V29.54C301 30.0702 300.552 30.5 300 30.5H299C298.448 30.5 298 30.0702 298 29.54V23.46C298 22.9298 298.448 22.5 299 22.5ZM295 24.5H294C293.448 24.5 293 24.9477 293 25.5V29.5C293 30.0523 293.448 30.5 294 30.5H295C295.552 30.5 296 30.0523 296 29.5V25.5C296 24.9477 295.552 24.5 295 24.5ZM290 26.5H289C288.448 26.5 288 26.9477 288 27.5V29.5C288 30.0523 288.448 30.5 289 30.5H290C290.552 30.5 291 30.0523 291 29.5V27.5C291 26.9477 290.552 26.5 290 26.5Z" fill="#090A0A"/>
<path fill-rule="evenodd" clip-rule="evenodd" d="M318.637 21.2773C320.852 21.2774 322.984 22.1289 324.59 23.6557C324.711 23.7735 324.904 23.772 325.023 23.6523L326.179 22.4857C326.239 22.4249 326.273 22.3427 326.272 22.2571C326.272 22.1715 326.237 22.0897 326.176 22.0297C321.961 17.9901 315.311 17.9901 311.096 22.0297C311.035 22.0896 311.001 22.1715 311 22.257C310.999 22.3426 311.033 22.4249 311.093 22.4857L312.25 23.6523C312.369 23.7722 312.562 23.7737 312.683 23.6557C314.289 22.1288 316.42 21.2773 318.637 21.2773ZM318.637 25.0729C319.854 25.0728 321.028 25.5254 321.931 26.3426C322.053 26.4585 322.245 26.456 322.364 26.3369L323.519 25.1702C323.579 25.109 323.613 25.026 323.612 24.9398C323.611 24.8535 323.576 24.7712 323.514 24.7112C320.766 22.1548 316.51 22.1548 313.762 24.7112C313.699 24.7712 313.664 24.8535 313.663 24.9398C313.662 25.0261 313.696 25.1091 313.757 25.1702L314.912 26.3369C315.031 26.456 315.223 26.4585 315.345 26.3426C316.247 25.5259 317.42 25.0734 318.637 25.0729ZM320.95 27.6267C320.951 27.7132 320.917 27.7966 320.856 27.8572L318.858 29.8729C318.8 29.9321 318.72 29.9655 318.637 29.9655C318.553 29.9655 318.473 29.9321 318.415 29.8729L316.417 27.8572C316.356 27.7966 316.322 27.7131 316.323 27.6266C316.325 27.5401 316.363 27.4582 316.427 27.4002C317.703 26.3213 319.571 26.3213 320.846 27.4002C320.91 27.4583 320.948 27.5402 320.95 27.6267Z" fill="#090A0A"/>
<path opacity="0.35" d="M332.5 20.6667C332.5 19.4701 333.47 18.5 334.667 18.5H354.333C355.53 18.5 356.5 19.47 356.5 20.6667V28.3333C356.5 29.53 355.53 30.5 354.333 30.5H334.667C333.47 30.5 332.5 29.53 332.5 28.3333V20.6667Z" stroke="#090A0A"/>
<path opacity="0.4" d="M357.65 23V27C358.455 26.6612 358.978 25.8731 358.978 25C358.978 24.1269 358.455 23.3388 357.65 23Z" fill="#090A0A"/>
<path d="M334.3 21.6663C334.3 20.93 334.897 20.333 335.633 20.333H353.167C353.903 20.333 354.5 20.93 354.5 21.6663V27.3297C354.5 28.0661 353.903 28.663 353.167 28.663H335.633C334.897 28.663 334.3 28.0661 334.3 27.3297V21.6663Z" fill="#090A0A"/>
<line y1="89.5" x2="375" y2="89.5" stroke="#E3E5E6"/>
<path d="M354.5 66.0827C354.5 65.6685 354.164 65.3327 353.75 65.3327C353.336 65.3327 353 65.6685 353 66.0827C353 66.4969 353.336 66.8327 353.75 66.8327C354.164 66.8327 354.5 66.4969 354.5 66.0827Z" fill="white"/>
<path d="M354.5 56.7493C354.5 56.3351 354.164 55.9993 353.75 55.9993C353.336 55.9993 353 56.3351 353 56.7493C353 57.1636 353.336 57.4993 353.75 57.4993C354.164 57.4993 354.5 57.1636 354.5 56.7493Z" fill="white"/>
<path d="M354.5 75.416C354.5 75.0018 354.164 74.666 353.75 74.666C353.336 74.666 353 75.0018 353 75.416C353 75.8302 353.336 76.166 353.75 76.166C354.164 76.166 354.5 75.8302 354.5 75.416Z" fill="white"/>
<path d="M354.5 66.0827C354.5 65.6685 354.164 65.3327 353.75 65.3327C353.336 65.3327 353 65.6685 353 66.0827C353 66.4969 353.336 66.8327 353.75 66.8327C354.164 66.8327 354.5 66.4969 354.5 66.0827Z" stroke="#9A9FAE" stroke-width="1.5" stroke-linecap="round" stroke-linejoin="round"/>
<path d="M354.5 56.7493C354.5 56.3351 354.164 55.9993 353.75 55.9993C353.336 55.9993 353 56.3351 353 56.7493C353 57.1636 353.336 57.4993 353.75 57.4993C354.164 57.4993 354.5 57.1636 354.5 56.7493Z" stroke="#9A9FAE" stroke-width="1.5" stroke-linecap="round" stroke-linejoin="round"/>
<path d="M354.5 75.416C354.5 75.0018 354.164 74.666 353.75 74.666C353.336 74.666 353 75.0018 353 75.416C353 75.8302 353.336 76.166 353.75 76.166C354.164 76.166 354.5 75.8302 354.5 75.416Z" stroke="#9A9FAE" stroke-width="1.5" stroke-linecap="round" stroke-linejoin="round"/>
<path d="M333 64.9167C333.004 66.4565 332.644 67.9756 331.95 69.35C331.127 70.9971 329.861 72.3824 328.295 73.3509C326.729 74.3193 324.925 74.8327 323.083 74.8334C321.543 74.8374 320.024 74.4776 318.65 73.7834L312 76L314.217 69.35C313.522 67.9756 313.163 66.4565 313.167 64.9167C313.167 63.0754 313.681 61.2707 314.649 59.7047C315.618 58.1387 317.003 56.8732 318.65 56.05C320.024 55.3558 321.543 54.996 323.083 55H323.667C326.098 55.1342 328.395 56.1606 330.117 57.8827C331.839 59.6048 332.866 61.9016 333 64.3334V64.9167Z" stroke="#9A9FAE" stroke-width="1.5" stroke-linecap="round" stroke-linejoin="round"/>
</svg>
